<svg id="visual" viewBox="0 0 450 450" width="450" height="450" xmlns="http://www.w3.org/2000/svg" xmlns:xlink="http://www.w3.org/1999/xlink" version="1.1"><g transform="translate(266.2638173420237 239.4872425635185)"><path d="M127.8 -163.5C149.8 -133.9 140.9 -78.6 150.5 -26.2C160.1 26.2 188.3 75.6 177.3 109.7C166.3 143.8 116.2 162.6 72.9 161.6C29.6 160.6 -6.9 139.7 -43.3 124.2C-79.7 108.6 -116 98.3 -164.2 68.7C-212.4 39.1 -272.4 -9.7 -260.9 -41C-249.4 -72.3 -166.5 -85.9 -111.1 -109.7C-55.7 -133.4 -27.9 -167.2 12.5 -182.1C52.9 -197.1 105.8 -193.1 127.8 -163.5" fill="#898976"></path></g></svg>