<svg id="visual" viewBox="0 0 400 400" width="400" height="400" xmlns="http://www.w3.org/2000/svg" xmlns:xlink="http://www.w3.org/1999/xlink" version="1.1"><g transform="translate(218.5194517274547 168.4805279530554)"><path d="M106.2 -127.6C138.7 -122.5 166.8 -92.9 174.9 -59C182.9 -25 170.9 13.3 152.1 42.7C133.3 72.2 107.8 92.7 81.3 123.8C54.9 154.8 27.4 196.4 3.9 191C-19.6 185.6 -39.2 133.3 -72.5 104.4C-105.8 75.6 -152.7 70.2 -182.6 43.9C-212.4 17.5 -225.1 -29.9 -204 -57.5C-183 -85.2 -128.2 -93.2 -88.6 -95.9C-49 -98.7 -24.5 -96.2 6.2 -104.7C36.8 -113.2 73.7 -132.7 106.2 -127.6" fill="#bebea8"></path></g></svg>