<svg id="visual" viewBox="0 0 900 600" width="900" height="600" xmlns="http://www.w3.org/2000/svg" xmlns:xlink="http://www.w3.org/1999/xlink" version="1.1"><path d="M0 199L69 241L138 218L208 243L277 170L346 182L415 225L485 190L554 169L623 227L692 245L762 246L831 201L900 226L900 0L831 0L762 0L692 0L623 0L554 0L485 0L415 0L346 0L277 0L208 0L138 0L69 0L0 0Z" fill="#4e4651"></path><path d="M0 187L69 150L138 152L208 169L277 217L346 149L415 184L485 219L554 182L623 144L692 206L762 149L831 184L900 190L900 0L831 0L762 0L692 0L623 0L554 0L485 0L415 0L346 0L277 0L208 0L138 0L69 0L0 0Z" fill="#5d617f"></path><path d="M0 150L69 132L138 130L208 127L277 178L346 177L415 174L485 176L554 128L623 158L692 109L762 147L831 114L900 147L900 0L831 0L762 0L692 0L623 0L554 0L485 0L415 0L346 0L277 0L208 0L138 0L69 0L0 0Z" fill="#4e84af"></path><path d="M0 110L69 126L138 110L208 98L277 137L346 117L415 95L485 89L554 80L623 77L692 82L762 102L831 86L900 107L900 0L831 0L762 0L692 0L623 0L554 0L485 0L415 0L346 0L277 0L208 0L138 0L69 0L0 0Z" fill="#00abd0"></path><path d="M0 76L69 49L138 90L208 90L277 107L346 105L415 81L485 78L554 83L623 74L692 96L762 48L831 82L900 69L900 0L831 0L762 0L692 0L623 0L554 0L485 0L415 0L346 0L277 0L208 0L138 0L69 0L0 0Z" fill="#00d1d9"></path><path d="M0 42L69 59L138 17L208 28L277 41L346 50L415 26L485 46L554 47L623 60L692 26L762 17L831 45L900 41L900 0L831 0L762 0L692 0L623 0L554 0L485 0L415 0L346 0L277 0L208 0L138 0L69 0L0 0Z" fill="#0af5c7"></path></svg>